<?xml version="1.0" standalone="no"?>
<!DOCTYPE svg PUBLIC "-//W3C//DTD SVG 1.1//EN" "http://www.w3.org/Graphics/SVG/1.1/DTD/svg11.dtd" >
<svg xmlns="http://www.w3.org/2000/svg">
<metadata></metadata>
<defs>
<font id="thejung130regular" horiz-adv-x="1945" >
<font-face units-per-em="2048" ascent="1638" descent="-410" />
<missing-glyph horiz-adv-x="819" />
<glyph horiz-adv-x="0" />
<glyph horiz-adv-x="682" />
<glyph unicode=" "  horiz-adv-x="819" />
<glyph unicode="&#x09;" horiz-adv-x="819" />
<glyph unicode="&#xa0;" horiz-adv-x="819" />
<glyph unicode="!" horiz-adv-x="331" d="M74 119q0 45 31.5 76.5t78.5 31.5t77 -31.5t30 -76.5t-30 -78t-77 -33t-78.5 33t-31.5 78zM88 1083v496h186v-496l-32 -651h-119z" />
<glyph unicode="&#x22;" horiz-adv-x="700" d="M102 1630h189l-45 -438h-105zM406 1630h190l-47 -438h-105z" />
<glyph unicode="#" horiz-adv-x="1452" d="M82 492l18 120h215l54 416h-213l20 125h213l70 477h141l-72 -477h502l68 477h141l-65 -477h194l-20 -125h-195l-53 -416h190l-16 -120h-193l-59 -463h-143l61 463h-502l-61 -463h-141l61 463h-215zM457 612h499l56 416h-500z" />
<glyph unicode="$" horiz-adv-x="1105" d="M100 324l107 77q59 -86 167.5 -136t225.5 -58v604q-92 18 -168 46t-129 75q-55 45 -86 113.5t-31 166.5q0 74 34 134.5t91 105.5q57 43 132 69.5t157 34.5v134h143v-134q117 -14 221.5 -65t168.5 -139l-105 -76q-47 59 -124 100t-161 58v-529q92 -23 176.5 -60.5 t147.5 -92.5q61 -55 95 -128t26 -161q-6 -72 -45 -133.5t-99 -108.5q-61 -47 -139 -78.5t-162 -44.5v-231h-143v225q-72 2 -143.5 18.5t-137.5 45.5t-122 70.5t-97 97.5zM338 1206q0 -61 18.5 -107t53.5 -79t83 -54.5t107 -33.5v508q-49 -6 -96 -25.5t-84 -48.5 q-37 -31 -59.5 -71t-22.5 -89zM743 217q53 10 104.5 31.5t92.5 54.5q41 31 67.5 73t32.5 95q4 57 -19.5 106.5t-64.5 88.5t-97 68.5t-116 47.5v-565z" />
<glyph unicode="%" horiz-adv-x="1720" d="M106 1282q0 70 28 133.5t77 112.5q47 47 111.5 74.5t138.5 27.5q72 0 135 -27.5t113 -74.5q47 -47 75.5 -110.5t28.5 -135.5t-27.5 -134.5t-74.5 -109.5q-49 -49 -112.5 -76.5t-137.5 -27.5q-72 0 -136.5 27.5t-111.5 74.5q-49 47 -78 110.5t-29 135.5zM231 1282 q0 -49 18.5 -91t49.5 -73q31 -33 73 -50t89 -17t89 17t73 50q31 31 49 73t18 91t-18.5 91t-48.5 75q-31 31 -73 48t-89 17t-89 -17t-73 -48q-31 -33 -49.5 -75t-18.5 -91zM365 29l776 1601h145l-778 -1601h-143zM885 352q0 72 27.5 135.5t76.5 110.5q47 47 111.5 74.5 t138.5 27.5q72 0 135.5 -26.5t112.5 -73.5q47 -47 75.5 -110.5t28.5 -137.5q0 -72 -27.5 -134t-74.5 -109q-49 -47 -112.5 -75t-137.5 -28q-72 0 -136.5 27.5t-111.5 75.5q-49 47 -77.5 109.5t-28.5 133.5zM1010 352q0 -49 18.5 -91t48.5 -73q31 -33 73 -50t89 -17t89 17.5 t73 49.5q31 31 49 73t18 91t-18 92t-49 74t-73 49.5t-89 18.5t-89 -18.5t-73 -49.5t-49 -74t-18 -92z" />
<glyph unicode="&#x26;" horiz-adv-x="1370" d="M70 436q0 59 18 119.5t62 122.5q41 59 110.5 118.5t171.5 116.5h-2q-29 29 -55.5 62t-55.5 67h3q-33 41 -64 98.5t-31 110.5q0 78 29 141.5t78 110.5q49 45 114.5 69.5t139.5 24.5q72 0 138.5 -27.5t117.5 -74.5q49 -47 79.5 -110.5t30.5 -133.5q0 -74 -26.5 -130 t-71.5 -99q-45 -45 -101.5 -81t-117.5 -71q94 -113 188.5 -225.5t188.5 -226.5q45 78 69.5 164t28.5 168h145q-4 -117 -40.5 -231t-112.5 -212q59 -72 115.5 -140.5t115.5 -135.5h-178q-37 43 -72.5 84t-72.5 84q-100 -88 -223 -142.5t-267 -54.5q-98 0 -181 32t-142 91 q-61 57 -95 136t-34 175zM211 420q0 -66 24.5 -120t67.5 -91q43 -39 99.5 -59.5t117.5 -20.5q123 2 218.5 47t187.5 129q-104 127 -207 252t-207 250q-57 -31 -111.5 -64.5t-95.5 -78.5q-43 -47 -68.5 -105.5t-25.5 -138.5zM371 1251q0 -37 18.5 -73.5t46.5 -71.5 q27 -37 57.5 -69.5t57.5 -63.5q41 25 86 49.5t84 56.5q39 31 63.5 72t24.5 100q0 47 -18.5 87t-49.5 71q-31 29 -70.5 45t-82.5 16t-82 -14t-68 -41q-31 -29 -49 -70t-18 -94z" />
<glyph unicode="'" horiz-adv-x="403" d="M102 1630h189l-45 -438h-105z" />
<glyph unicode="(" horiz-adv-x="657" d="M57 717q0 154 36 293t106 258q68 117 166 209t223 153v-162q-178 -104 -277.5 -296.5t-99.5 -454.5q0 -258 99.5 -448.5t277.5 -295.5v-161q-121 57 -218.5 146t-166.5 204q-70 115 -108 255t-38 300z" />
<glyph unicode=")" horiz-adv-x="653" d="M63 -27q178 104 277.5 295t99.5 449q0 262 -99 454.5t-278 296.5v162q125 -61 223.5 -153.5t168.5 -208.5q68 -119 103.5 -258.5t35.5 -292.5q0 -160 -38 -300.5t-107 -254.5q-70 -115 -168.5 -204t-217.5 -146v161z" />
<glyph unicode="*" horiz-adv-x="839" d="M74 850v102h256l-133 219l102 64l125 -219l121 215l100 -55l-127 -224h254v-102h-250l129 -232l-106 -43l-121 209l-121 -213l-104 56l127 223h-252z" />
<glyph unicode="+" horiz-adv-x="1171" d="M68 643v129h440v440h143v-440h439v-129h-439v-440h-143v440h-440z" />
<glyph unicode="," horiz-adv-x="380" d="M82 102q0 47 35 79t82 32q59 0 87.5 -38t28.5 -87q0 -86 -43 -138t-114 -73q-12 -4 -25.5 -1t-17.5 13t3 14.5t17 8.5q37 20 48.5 45t4.5 39q-45 4 -75.5 34.5t-30.5 71.5z" />
<glyph unicode="-" horiz-adv-x="968" d="M68 643v129h817v-129h-817z" />
<glyph unicode="." horiz-adv-x="382" d="M82 100q0 47 32.5 79t80.5 32q47 0 78.5 -32t31.5 -79q0 -45 -31.5 -75.5t-78.5 -30.5t-80 30.5t-33 75.5z" />
<glyph unicode="/" horiz-adv-x="1044" d="M66 29l776 1601h145l-778 -1601h-143z" />
<glyph unicode="0" horiz-adv-x="1325" d="M92 829q0 182 37 333t111 259q72 109 177 168.5t240 59.5t241 -59.5t179 -168.5q72 -109 109 -259.5t37 -332.5t-37 -332.5t-109 -258.5q-74 -109 -179 -169.5t-241 -60.5q-135 0 -240.5 60.5t-176.5 169.5q-74 109 -111 259t-37 332zM229 829q0 -166 34 -293.5 t93 -216.5q57 -90 135 -136t166 -46t166 46t138 136q57 88 90.5 216.5t33.5 293.5q0 164 -33.5 293t-90.5 219q-59 88 -137.5 134.5t-166.5 46.5t-165.5 -46t-135.5 -135q-59 -90 -93 -219t-34 -293z" />
<glyph unicode="1" horiz-adv-x="565" d="M88 1503v127h313v-1601h-143v1474h-170z" />
<glyph unicode="2" horiz-adv-x="1245" d="M123 29q0 123 55 226t150 196q92 92 215 179t260 175q86 59 134 150.5t48 187.5q0 74 -26.5 139.5t-73.5 114.5q-49 49 -112.5 77.5t-137.5 28.5q-66 0 -127.5 -23.5t-108.5 -66.5q-49 -43 -78.5 -103.5t-29.5 -131.5h-152q0 94 41 179t111 148q68 61 158 98t186 37 q104 0 195.5 -38.5t158.5 -106.5q68 -68 107 -158t39 -192q0 -127 -62.5 -246t-181.5 -197q-96 -66 -197.5 -132t-185.5 -134q-84 -70 -138.5 -140.5t-54.5 -139.5h850v-127h-1042z" />
<glyph unicode="3" horiz-adv-x="1282" d="M113 461h151q0 -76 33 -135.5t88 -100.5q53 -43 120.5 -64.5t137.5 -21.5q76 0 144.5 28t121.5 77q51 47 82 109.5t31 131.5q0 63 -29.5 123t-81.5 107q-51 45 -118.5 72.5t-143.5 27.5h-117v129h117q63 2 120.5 25.5t100.5 64.5q43 39 69 90.5t26 106.5q0 57 -26 108.5 t-69 90.5q-45 37 -103 59t-124 22q-57 0 -112.5 -19t-100.5 -52t-74.5 -76t-31.5 -88h-156q2 76 43 144.5t106 119.5q66 49 151 79t175 30q100 0 186 -34t152 -91q63 -57 100 -133t37 -160q0 -45 -16.5 -97.5t-46.5 -99.5q-33 -49 -79 -88t-104 -57q66 -23 121.5 -63 t96.5 -93t63.5 -116.5t22.5 -131.5q0 -96 -42 -182t-114 -151q-72 -66 -169 -105t-208 -39q-109 0 -205 32t-168 91q-72 57 -114.5 141t-42.5 189z" />
<glyph unicode="4" horiz-adv-x="1318" d="M109 401v131l778 1098h123v-1098h198v-131h-198v-372h-146v372h-755zM274 532h590v834z" />
<glyph unicode="5" horiz-adv-x="1236" d="M113 430h149q14 -66 48 -120t83 -91q47 -39 106.5 -60.5t125.5 -21.5q78 0 147.5 33t122.5 90q51 55 82 129t31 154t-30 152.5t-81 127.5t-120.5 87t-151.5 32q-84 0 -161 -38t-128 -99h-178l94 825h821v-127h-690q-2 -10 -6 -52t-10 -99q-6 -59 -14.5 -126t-14.5 -124 q-6 -59 -11 -101.5t-5 -52.5q29 27 67.5 49.5t81.5 38.5t87 25.5t81 9.5q109 0 203 -43t164 -115q68 -74 107.5 -169t39.5 -201t-41 -202.5t-113 -170.5t-168 -118t-206 -44q-94 0 -179.5 32t-152.5 89q-70 55 -116 133t-64 168z" />
<glyph unicode="6" horiz-adv-x="1304" d="M129 788q-4 168 23.5 323t93.5 273q66 117 175 186.5t273 69.5q96 0 178 -29.5t146 -78.5q61 -51 104 -120t60 -146h-142q-16 51 -49 96t-78 80q-47 33 -103 52t-118 19q-121 0 -202.5 -60t-131.5 -163q-49 -102 -70.5 -237t-21.5 -285q29 76 80 128t111 85 q59 33 120.5 47t108.5 14q106 0 202.5 -40.5t168.5 -110.5q70 -72 111.5 -166t41.5 -201q0 -106 -42 -199.5t-111 -162.5q-72 -72 -168 -113t-203 -41q-119 0 -220 46t-175 143q-76 94 -119 241.5t-43 349.5zM309 524q0 -80 30 -150.5t81 -121.5q51 -53 119.5 -84t146.5 -31 t147.5 31t120.5 84q51 51 81 121.5t30 150.5t-29.5 152t-81.5 125q-51 51 -120.5 81.5t-147.5 30.5q-74 0 -141.5 -28.5t-118.5 -79.5q-53 -51 -85 -123t-32 -158z" />
<glyph unicode="7" horiz-adv-x="1245" d="M129 1503v127h1001v-377q-98 -98 -202.5 -237t-190.5 -301q-88 -164 -144 -340t-56 -346h-148q0 147 48 320t132 345q82 172 191.5 330t232.5 274v205h-864z" />
<glyph unicode="8" horiz-adv-x="1273" d="M113 477q0 74 25.5 138.5t66.5 117.5q41 51 93 89t105 61q-63 23 -108 60.5t-74 84.5q-31 47 -45 99.5t-14 103.5q0 86 38 161.5t103 133.5q66 57 154 90t186 33q100 0 188.5 -32t153.5 -87q66 -57 103.5 -134t37.5 -165q0 -51 -14 -103.5t-43 -99.5t-75 -85t-107 -60 q53 -23 104 -61t92 -89q41 -53 67 -117.5t26 -138.5q0 -100 -42 -186t-114 -148q-72 -63 -169 -99t-208 -36t-207 36t-168 99q-72 61 -113.5 147.5t-41.5 186.5zM262 477q0 -74 32 -137.5t85 -108.5q51 -45 119.5 -70.5t144.5 -25.5t145.5 25.5t122.5 70.5q51 45 83 108.5 t32 137.5q0 66 -31.5 126.5t-83.5 107.5q-53 47 -121.5 75.5t-144.5 28.5t-144.5 -28.5t-121.5 -75.5t-85 -107.5t-32 -126.5zM311 1231q0 -61 29 -112.5t76 -88.5t106.5 -58.5t122.5 -23.5q63 2 123.5 23.5t108.5 58.5q45 37 72.5 88.5t27.5 112.5t-27.5 112.5t-72.5 90.5 q-47 39 -107.5 60.5t-126.5 21.5t-125 -21.5t-104 -60.5q-47 -39 -75 -90.5t-28 -112.5z" />
<glyph unicode="9" horiz-adv-x="1314" d="M129 1108q0 109 42 206t114 171q70 72 165 113.5t203 41.5q117 0 219.5 -38.5t178.5 -124.5q74 -86 116.5 -222.5t42.5 -330.5q2 -170 -22.5 -333t-87.5 -290q-66 -129 -173.5 -207t-269.5 -78q-96 0 -178 29t-143 80q-63 51 -105.5 118.5t-56.5 147.5h141q14 -51 47 -96 t78 -78q45 -35 101.5 -54.5t117.5 -19.5q121 0 201 66.5t127 171.5q47 102 66.5 228t19.5 245q-29 -72 -80 -125t-110 -86q-59 -35 -121 -51.5t-109 -16.5q-109 0 -204 42t-164 116q-72 72 -114 169t-42 206zM274 1108q0 -84 30 -156.5t81 -128.5q51 -55 120.5 -86.5 t147.5 -31.5q74 0 143.5 32.5t125.5 87.5q53 55 85.5 127t32.5 152q0 86 -28.5 160.5t-79.5 130.5q-51 55 -122 86.5t-157 31.5q-78 0 -147.5 -32.5t-120.5 -87.5t-81 -129t-30 -156z" />
<glyph unicode=":" horiz-adv-x="382" d="M86 309q0 47 32 79t79 32q49 0 79.5 -32t30.5 -79q0 -45 -30.5 -75.5t-79.5 -30.5q-47 0 -79 30.5t-32 75.5zM86 1051q0 47 32 78.5t79 31.5q49 0 79.5 -31.5t30.5 -78.5q0 -45 -30.5 -76t-79.5 -31q-47 0 -79 31t-32 76z" />
<glyph unicode=";" horiz-adv-x="382" d="M82 305q0 47 35 79t82 32q59 0 87.5 -38t28.5 -87q0 -86 -43 -138.5t-114 -72.5q-12 -4 -25.5 -2t-17.5 14q-4 10 3 14.5t17 8.5q37 20 48.5 44.5t4.5 39.5q-45 4 -75.5 34.5t-30.5 71.5zM86 1055q0 47 32 77.5t79 30.5q49 0 79.5 -30.5t30.5 -77.5q0 -45 -30.5 -77 t-79.5 -32q-47 0 -79 32t-32 77z" />
<glyph unicode="&#x3c;" horiz-adv-x="1335" d="M109 702l1093 656v-156l-854 -500l854 -499v-158z" />
<glyph unicode="=" horiz-adv-x="968" d="M68 408v129h817v-129h-817zM68 883v129h817v-129h-817z" />
<glyph unicode="&#x3e;" horiz-adv-x="1335" d="M121 45v158l856 499l-856 500v156l1093 -656z" />
<glyph unicode="?" horiz-adv-x="1073" d="M109 1198q4 88 40.5 164t98.5 133q59 57 138 90t169 33q100 0 183 -29.5t143 -85.5q57 -57 90 -139t33 -186q0 -59 -20.5 -112.5t-53.5 -98.5t-76 -83t-86 -67q-31 -31 -63.5 -59.5t-59.5 -61.5q-29 -35 -46 -75.5t-17 -96.5v-112h-144v112q0 104 55.5 204.5t157.5 164.5 q35 23 72 52.5t68 66.5q31 35 50 76.5t19 89.5q0 150 -82 229.5t-223 79.5q-59 0 -112.5 -21.5t-94.5 -60.5t-66.5 -92t-29.5 -115h-143zM401 115q0 45 31 76.5t80 31.5q47 0 76.5 -31.5t29.5 -76.5t-29.5 -76t-76.5 -31q-49 0 -80 31t-31 76z" />
<glyph unicode="@" horiz-adv-x="1597" d="M66 657q0 150 58 288t165 247q104 106 251.5 172t327.5 68q147 0 266 -53.5t205 -145.5q84 -92 130.5 -215t46.5 -264q0 -74 -15.5 -150t-50.5 -137q-35 -63 -91 -103t-136 -40q-23 0 -50.5 8t-52.5 26q-25 16 -44 41t-25 56q-72 -88 -158 -115t-186 -27q-61 0 -119 21.5 t-103 66.5q-47 45 -74.5 114t-27.5 163q0 82 31.5 161t91.5 140q57 61 138 99t179 38q80 0 157 -37t112 -100q0 2 3 23.5t7 46.5q2 23 4 43t2 24h111l-80 -526q-4 -23 -2 -51.5t12 -53.5t30.5 -40t53.5 -15q49 0 79.5 29.5t49.5 77.5q18 45 25.5 101t7.5 112q0 121 -36 224 t-106 179q-70 74 -169 117t-226 43q-129 0 -249 -50.5t-212 -138.5t-147 -207.5t-55 -257.5q0 -123 40.5 -223t114.5 -170q72 -72 172.5 -110.5t218.5 -38.5q74 0 160 20.5t158 57.5l43 -103q-78 -41 -178.5 -64.5t-188.5 -23.5q-135 0 -257 43t-212 127q-92 82 -146 204 t-54 279zM500 674q0 -111 56 -179.5t167 -68.5q57 0 111.5 20.5t97.5 59.5t72.5 92t37.5 119q10 61 -1 114.5t-40 94.5q-29 39 -75.5 61.5t-108.5 22.5q-68 0 -126 -29t-99 -74q-43 -47 -67.5 -108.5t-24.5 -124.5z" />
<glyph unicode="A" horiz-adv-x="1574" d="M102 31q158 401 313.5 798.5t311.5 800.5h145q156 -403 311.5 -800.5t311.5 -798.5h-158q-47 127 -95 253t-97 255h-694q-47 -129 -96.5 -255t-96.5 -253h-156zM504 668h590q-74 190 -149 378.5t-148 380.5q-74 -193 -146.5 -381t-146.5 -378z" />
<glyph unicode="B" horiz-adv-x="1380" d="M129 31v1599h686q86 0 163 -32.5t134 -88.5q55 -57 89 -133t34 -162q0 -47 -16.5 -105t-44.5 -110q-31 -53 -72 -90t-92 -39q76 -18 132 -61t93 -98q35 -55 52.5 -118t17.5 -120q0 -90 -35 -170t-96 -139q-61 -61 -142.5 -97t-173.5 -36h-729zM274 158h584 q61 0 116.5 25.5t96.5 68.5t64.5 100.5t23.5 120.5q0 59 -20.5 116.5t-55.5 102.5t-85 73t-107 28h-617v-635zM274 922h535q57 0 108.5 23.5t90.5 64.5t61.5 93t22.5 111q0 61 -21.5 113.5t-58.5 91.5q-39 39 -89.5 60.5t-107.5 21.5h-541v-579z" />
<glyph unicode="C" horiz-adv-x="1511" d="M113 823q0 160 50 307.5t146 260.5t236.5 180t318.5 67q154 0 285 -57t248 -162l-99 -102q-86 88 -198.5 140t-235.5 52q-131 0 -242.5 -53t-193.5 -145q-82 -94 -128 -219t-46 -269q0 -143 45 -268t125 -217q80 -94 192.5 -147.5t247.5 -53.5q123 0 234.5 51.5 t197.5 139.5l97 -97q-98 -98 -233.5 -160.5t-295.5 -62.5q-172 0 -310 66.5t-237 179.5q-98 113 -151 260.5t-53 308.5z" />
<glyph unicode="D" horiz-adv-x="1505" d="M129 29v1601h543q154 0 286 -64.5t230 -172.5q96 -109 150.5 -255.5t54.5 -308.5q0 -158 -51.5 -302t-145.5 -255q-96 -111 -229 -177t-295 -66h-543zM274 158h398q127 0 232.5 55t180.5 149q76 92 118 213t42 254q0 131 -41 253t-114 216q-76 94 -182.5 149.5 t-235.5 55.5h-398v-1345z" />
<glyph unicode="E" horiz-adv-x="1286" d="M129 29v1601h1057v-127h-912v-606h844v-127h-844v-612h912v-129h-1057z" />
<glyph unicode="F" horiz-adv-x="1290" d="M129 29v1601h1057v-127h-912v-606h818v-127h-818v-741h-145z" />
<glyph unicode="G" horiz-adv-x="1579" d="M113 823q0 160 50 307.5t146 260.5t236.5 180t318.5 67q154 0 285 -57t248 -162l-99 -102q-86 88 -198.5 140t-235.5 52q-131 0 -242.5 -53t-193.5 -145q-82 -94 -128 -219t-46 -269q0 -143 45 -268t125 -217q80 -94 192.5 -147.5t247.5 -53.5q53 0 113.5 10.5 t120.5 30.5q59 20 114.5 49t98.5 64v477h-365v129h504l-2 -666q-49 -49 -117.5 -90t-144.5 -71q-78 -29 -160 -45.5t-162 -16.5q-172 0 -310 66.5t-237 179.5q-98 113 -151 260.5t-53 308.5z" />
<glyph unicode="H" horiz-adv-x="1427" d="M129 29v1601h145v-712h873v712h145v-1601h-145v762h-873v-762h-145z" />
<glyph unicode="I" horiz-adv-x="475" d="M164 29v1601h145v-1601h-145z" />
<glyph unicode="J" horiz-adv-x="1021" d="M84 141l96 97q53 -45 110.5 -73t121.5 -28q72 0 133 28t106 75q43 47 68.5 110.5t25.5 136.5v1143h148v-1143q0 -98 -38 -185t-101 -152q-66 -66 -154 -104t-188 -38q-96 0 -178 36t-150 97z" />
<glyph unicode="K" horiz-adv-x="1409" d="M129 29v1601h145v-794l734 794h188l-661 -721l811 -880h-183l-729 764l-160 -179v-585h-145z" />
<glyph unicode="L" horiz-adv-x="1226" d="M129 31v1599h145v-1472h861v-127h-1006z" />
<glyph unicode="M" horiz-adv-x="1673" d="M127 29l72 1601h94l561 -1055l555 1055h98l72 -1601h-147l-46 1294l-532 -1032l-537 1034l-43 -1296h-147z" />
<glyph unicode="N" horiz-adv-x="1437" d="M129 31v1599h119q229 -332 455.5 -660.5t455.5 -660.5v1321h146v-1599h-117q-229 330 -456.5 657.5t-457.5 657.5v-1315h-145z" />
<glyph unicode="O" horiz-adv-x="1701" d="M115 827q0 158 53 304.5t151 261.5q98 113 235.5 180t305.5 67q160 0 296 -65.5t237 -175.5q100 -113 156.5 -260.5t56.5 -311.5q0 -156 -54.5 -303t-152.5 -262t-235.5 -184.5t-303.5 -69.5q-164 0 -300 66.5t-234 179.5q-100 113 -155.5 261.5t-55.5 311.5zM254 827 q0 -141 48 -267t132 -218q82 -94 192.5 -149.5t233.5 -55.5t231.5 55.5t192.5 149.5q82 92 130 218t48 267t-48 266.5t-130 219.5q-84 92 -192.5 146t-231.5 54t-233.5 -54t-192.5 -146q-84 -94 -132 -219t-48 -267z" />
<glyph unicode="P" horiz-adv-x="1327" d="M129 29v1601h621q98 0 186 -34.5t156 -100.5q66 -66 105.5 -158t39.5 -209q0 -115 -38 -207t-101 -157q-63 -66 -146.5 -101.5t-173.5 -35.5h-504v-598h-145zM274 756h476q70 0 131 24.5t108 71.5q45 47 73 116.5t28 159.5t-28 160t-73 119q-47 47 -107.5 71.5 t-127.5 24.5h-480v-747z" />
<glyph unicode="Q" horiz-adv-x="1701" d="M113 825q0 158 53 305.5t151 262.5q98 113 235.5 180t305.5 67q160 0 297 -65.5t238 -175.5q98 -113 154.5 -261.5t56.5 -312.5q0 -147 -47.5 -284.5t-133.5 -247.5q51 -66 101.5 -131.5t103.5 -130.5h-164q-35 41 -66.5 83t-64.5 83q-94 -86 -214 -136.5t-261 -50.5 q-164 0 -300 65.5t-234 178.5q-100 111 -155.5 259.5t-55.5 311.5zM254 825q0 -141 48 -266t130 -219t192.5 -148.5t233.5 -54.5q111 0 210 44t179 122q-53 68 -105 136.5t-106 135.5h172q33 -41 64 -83.5t63 -83.5q59 88 93 194.5t34 222.5q0 141 -48 266.5t-130 219.5 q-84 92 -193.5 146t-232.5 54t-233.5 -54t-192.5 -146q-82 -94 -130 -219t-48 -267z" />
<glyph unicode="R" horiz-adv-x="1327" d="M129 31v1599h621q98 0 186 -34.5t156 -100.5q66 -66 104.5 -159t38.5 -210q0 -92 -25.5 -170.5t-70.5 -140.5q-45 -61 -105.5 -105t-130.5 -65l369 -614h-160q-92 147 -180 295.5t-180 298.5h-478v-594h-145zM274 754h476q68 0 130 24.5t109 71.5q45 47 73 116.5 t28 159.5t-28 160t-73 119q-47 47 -107.5 71.5t-127.5 24.5h-480v-747z" />
<glyph unicode="S" horiz-adv-x="1284" d="M100 266l107 88q31 -51 80 -91t106 -66q57 -29 119.5 -43.5t124.5 -14.5q66 0 134.5 18.5t125.5 55.5t96 91t47 128q1 12 1 23q-1 63 -29 115q-34 62 -88 110q-57 47 -129 77.5t-142 43.5q-102 18 -187 47t-147 80q-63 51 -98 131t-35 196q0 90 40 162t108 121 q66 49 152 75.5t178 26.5q68 0 135 -14t131 -43q61 -29 113.5 -72t89.5 -100l-105 -84q-31 41 -73 75t-91 58q-49 25 -103 38t-106 13q-55 0 -112.5 -18t-102.5 -51q-45 -35 -73.5 -83t-28.5 -110q0 -76 22.5 -130t65.5 -91q41 -37 98.5 -59.5t126.5 -34.5 q106 -16 206.5 -56t178.5 -104q76 -66 118 -152q35 -73 35 -163q0 -17 -1 -35q-8 -94 -58.5 -171t-125.5 -130q-78 -55 -173.5 -85t-195.5 -30q-74 0 -150.5 16.5t-146.5 49.5q-72 33 -133.5 81t-104.5 111z" />
<glyph unicode="T" horiz-adv-x="1320" d="M61 1503v127h1199v-127h-525v-1474h-147v1474h-527z" />
<glyph unicode="U" horiz-adv-x="1400" d="M129 530v1100h145v-1100q0 -84 33 -153.5t92 -120.5q57 -53 135 -82t168 -29q88 0 166 29t136 82q57 51 89.5 120.5t32.5 153.5v1100h146v-1100q0 -123 -47 -219t-125 -164q-80 -68 -183.5 -103.5t-214.5 -35.5q-109 0 -212 35t-183 102q-80 66 -128 163.5t-50 221.5z " />
<glyph unicode="V" horiz-adv-x="1562" d="M88 1630h158q135 -324 269 -642t269 -642q135 311 270.5 641t270.5 643h154q-174 -408 -347.5 -812t-347.5 -810q-174 406 -347 810.5t-349 811.5z" />
<glyph unicode="W" horiz-adv-x="1748" d="M78 1630h143l219 -1222l426 938l424 -938l228 1222h141l-305 -1622l-488 1022l-485 -1022z" />
<glyph unicode="X" horiz-adv-x="1404" d="M72 29l544 825l-512 776h168l430 -651l428 651h168l-512 -776l545 -825h-170l-459 696l-460 -696h-170z" />
<glyph unicode="Y" horiz-adv-x="1441" d="M76 1630h170q119 -190 237.5 -377.5t239.5 -378.5q119 190 237.5 378t239.5 378h168q-145 -227 -287.5 -450.5t-285.5 -450.5v-698h-146l2 698q-143 227 -287.5 450.5t-287.5 450.5z" />
<glyph unicode="Z" horiz-adv-x="1456" d="M106 29l955 1474h-893v127h1147l-953 -1472h990v-129h-1246z" />
<glyph unicode="[" horiz-adv-x="657" d="M141 -188v1818h379v-121h-246v-1575h246v-122h-379z" />
<glyph unicode="\" horiz-adv-x="1748" d="M63 686v115h168l-153 829h143l141 -829h252l252 571l250 -571h254l148 829h141l-156 -829h154v-115h-176l-127 -678l-316 678h-344l-313 -678l-127 678h-191zM383 686l51 -299l131 299h-182zM748 801h237l-119 258zM1165 686l131 -299l54 299h-185z" />
<glyph unicode="]" horiz-adv-x="657" d="M141 -66h246v1575h-246v121h379v-1818h-379v122z" />
<glyph unicode="^" horiz-adv-x="870" d="M88 1083l348 553l350 -553h-145l-203 330l-200 -330h-150z" />
<glyph unicode="_" horiz-adv-x="1142" d="M0 -70h1143v-118h-1143v118z" />
<glyph unicode="`" horiz-adv-x="489" d="M74 1630h198l152 -305h-125z" />
<glyph unicode="a" horiz-adv-x="1341" d="M109 553q0 109 43 207t118 174q76 74 175.5 118t213.5 44q53 0 111.5 -14.5t114.5 -41.5q55 -27 103 -64.5t81 -84.5v192h143v-1054h-143v184q-37 -55 -86 -94t-104 -64q-55 -23 -112 -34t-108 -11q-106 0 -205.5 42t-174.5 116q-78 72 -124 171t-46 214zM250 553 q0 -90 32.5 -166t88.5 -131q55 -55 129.5 -87t158.5 -32q86 0 161 32t130 87t88 131t33 166q0 92 -33.5 169t-89.5 132q-57 53 -132 84t-157 31q-84 0 -158.5 -32t-129.5 -87q-55 -57 -88 -133t-33 -164z" />
<glyph unicode="b" horiz-adv-x="1331" d="M129 29v1642h143v-780q33 47 81 85t104 64q55 27 113.5 41.5t111.5 14.5q113 0 213 -42t176 -116t119 -173t43 -212q0 -115 -46 -214t-122 -171q-78 -74 -177.5 -116t-205.5 -42q-51 0 -107.5 11.5t-111.5 33.5q-55 25 -104.5 64t-86.5 94v-184h-143zM270 553 q0 -90 33 -166t88 -131t130 -87t161 -32q84 0 158.5 32t130.5 87q55 55 88 131t33 166q0 88 -33 164t-88 133q-55 55 -130 87t-159 32q-82 0 -156.5 -31t-130.5 -84q-57 -55 -91 -132t-34 -169z" />
<glyph unicode="c" horiz-adv-x="1171" d="M109 553q0 113 42 212t115 173q74 74 175.5 117t217.5 43q106 0 204 -41t175 -115l-96 -90q-53 57 -125 88t-158 31q-84 0 -158.5 -33t-129.5 -88q-55 -57 -88 -134t-33 -163t32.5 -162t88.5 -131q55 -57 129.5 -90t158.5 -33q88 0 164 35t129 94l99 -92 q-74 -78 -178.5 -122t-213.5 -44q-111 0 -211 41t-176 115q-76 72 -119.5 171t-43.5 218z" />
<glyph unicode="d" horiz-adv-x="1341" d="M109 553q0 113 43 212t118 173q76 74 175.5 116t213.5 42q53 0 111.5 -14.5t114.5 -41.5q55 -27 103 -64.5t81 -84.5v780h143v-1642h-143v184q-37 -55 -86 -94t-104 -64q-55 -23 -112 -34t-108 -11q-106 0 -205.5 42t-174.5 116q-78 72 -124 171t-46 214zM250 553 q0 -90 32.5 -166t88.5 -131q55 -55 129.5 -87t158.5 -32q86 0 161 32t130 87t88 131t33 166q0 92 -33.5 169t-89.5 132q-57 53 -132 84t-157 31q-84 0 -158.5 -32t-129.5 -87q-55 -57 -88 -133t-33 -164z" />
<glyph unicode="e" horiz-adv-x="1243" d="M109 563q0 119 39.5 218.5t109.5 170.5q68 70 161 110t199 40q121 0 217.5 -42t163.5 -120q66 -78 102 -187.5t36 -244.5h-875q0 -78 33 -144.5t88 -115.5q53 -49 125 -77t149 -28q94 0 182.5 40t151.5 116l90 -86q-78 -90 -186.5 -143.5t-237.5 -53.5q-106 0 -205.5 39 t-175.5 113q-76 72 -121.5 172t-45.5 223zM262 633h719q0 74 -31.5 136t-81.5 108q-51 45 -116.5 70.5t-133.5 25.5t-132 -26.5t-113 -72.5q-51 -47 -81 -108t-30 -133z" />
<glyph unicode="f" horiz-adv-x="983" d="M88 909v127h168v195q0 86 29.5 160.5t85.5 130.5q53 55 125.5 86.5t158.5 31.5q78 0 140.5 -29.5t113.5 -78.5l-100 -82q-33 31 -70 47t-84 16q-115 0 -185.5 -78.5t-70.5 -203.5v-195h303v-127h-303v-880h-143v880h-168z" />
<glyph unicode="g" horiz-adv-x="1341" d="M109 553q0 109 43 207t118 174q76 74 175.5 118t213.5 44q53 0 111.5 -14.5t114.5 -41.5q55 -27 103 -64.5t81 -84.5v192h143v-964q-2 -117 -46 -215.5t-117 -167.5q-76 -70 -179.5 -109t-226.5 -39q-135 0 -249.5 48.5t-200.5 142.5l94 90q63 -68 156.5 -111t199.5 -43 q88 0 164 27t133 76q57 51 91 126.5t38 174.5v94q-37 -55 -86 -94t-104 -64q-55 -23 -112 -34t-108 -11q-106 0 -205.5 42t-174.5 116q-78 72 -124 171t-46 214zM250 553q0 -90 32.5 -166t88.5 -131q55 -55 129.5 -87t158.5 -32q86 0 161 32t130 87t88 131t33 166 q0 92 -33.5 169t-89.5 132q-57 53 -132 84t-157 31q-84 0 -158.5 -32t-129.5 -87q-55 -57 -88 -133t-33 -164z" />
<glyph unicode="h" horiz-adv-x="1206" d="M129 29v1642h143v-745q31 47 73 79.5t87 53.5q43 20 86 29.5t76 9.5q104 0 188 -32t146 -89q59 -59 92 -139t33 -179v-630h-144v630q0 147 -88 229.5t-231 82.5q-61 0 -118.5 -26.5t-100.5 -70.5q-45 -45 -72 -101t-27 -114v-630h-143z" />
<glyph unicode="i" horiz-adv-x="438" d="M129 1417q0 39 27.5 66.5t70.5 27.5t71 -27.5t28 -66.5q0 -41 -28 -68.5t-71 -27.5t-70.5 27.5t-27.5 68.5zM158 29v1071h143v-1071h-143z" />
<glyph unicode="j" horiz-adv-x="808" d="M39 -172l86 92q31 -31 84 -54.5t92 -23.5q137 0 194.5 85t57.5 261v910h143v-910q0 -229 -96 -351t-291 -122q-72 0 -147.5 33t-122.5 80zM528 1417q0 39 29 66.5t70 27.5q43 0 70.5 -27.5t27.5 -66.5t-27.5 -67.5t-70.5 -28.5q-41 0 -70 28.5t-29 67.5z" />
<glyph unicode="k" horiz-adv-x="1136" d="M129 29v1642h143v-1038l531 473h184l-477 -432l563 -645h-172l-487 546q0 -2 -22.5 -21t-47.5 -42q-27 -25 -49.5 -44t-24.5 -22l2 -417h-143z" />
<glyph unicode="l" horiz-adv-x="473" d="M129 270v1401h143v-1374q0 -98 29 -128t82 -30v-125q-68 0 -116 12.5t-79 41.5t-45 79t-14 123z" />
<glyph unicode="m" horiz-adv-x="1677" d="M129 29v1052h143v-114q37 63 108 97t142 34q109 0 195 -52.5t127 -150.5q41 98 128 150.5t193 52.5q100 0 174 -32t123 -89q49 -59 73 -139t24 -179v-630h-146v630q0 147 -58.5 229.5t-189.5 82.5q-61 0 -108 -24.5t-78 -65.5q-31 -43 -47.5 -100.5t-16.5 -121.5v-630 h-145v630q0 63 -16.5 121t-46.5 101q-31 41 -77 65.5t-108 24.5q-59 0 -105 -23.5t-77 -62.5q-33 -41 -50.5 -95.5t-17.5 -115.5v-645h-143z" />
<glyph unicode="n" horiz-adv-x="1181" d="M129 29v1052h143v-149q27 45 68 75.5t86 51.5q45 20 90 29.5t78 9.5q96 0 180 -29t146 -84q61 -55 97 -134t36 -179v-643h-144v643q0 70 -23.5 126t-66.5 95q-43 37 -101.5 57.5t-127.5 20.5q-63 0 -120.5 -22.5t-100.5 -61.5q-45 -41 -71 -95.5t-26 -119.5v-643h-143z " />
<glyph unicode="o" horiz-adv-x="1314" d="M109 551q0 111 43 210t118 173q74 74 174.5 118t214.5 44q113 0 213.5 -43t176.5 -117t119.5 -173t43.5 -212q0 -111 -43 -209t-118 -172q-76 -74 -176.5 -118t-215.5 -44q-113 0 -213 43t-174 117q-76 74 -119.5 172t-43.5 211zM250 551q0 -88 32.5 -164t88.5 -131 q55 -55 129.5 -87t158.5 -32t159 32t132 87q55 55 88 131t33 164t-32.5 165t-88.5 134q-57 55 -132 87t-159 32t-158.5 -32t-129.5 -87q-55 -57 -88 -134t-33 -165z" />
<glyph unicode="p" horiz-adv-x="1337" d="M129 -408v1489h143v-188q37 55 87.5 94t105.5 64q55 23 111.5 34t105.5 11q111 0 210 -42t175 -116t121 -173t45 -212q0 -117 -45 -216t-119 -171q-76 -74 -176 -115t-211 -41q-55 0 -113.5 13.5t-113.5 39.5q-55 27 -102.5 65t-80.5 85v-621h-143zM270 553 q0 -92 33 -168t90 -131t131 -86t158 -31t158.5 32t130.5 89q55 55 88 131t33 164t-33 165t-88 132t-130 87t-159 32t-158.5 -32t-130.5 -87q-57 -55 -90 -131t-33 -166z" />
<glyph unicode="q" horiz-adv-x="1341" d="M109 553q0 113 45 212t120 173q76 74 175.5 116t209.5 42q49 0 105.5 -11.5t112.5 -33.5q55 -25 105 -64t87 -94v188h143v-1489h-143v621q-33 -47 -80 -85t-102 -65t-114 -40t-114 -13q-111 0 -211 41t-174 115q-76 72 -120.5 171t-44.5 216zM250 553q0 -88 32.5 -164 t88.5 -131q55 -57 129.5 -89t158.5 -32q82 0 157 31t132 86t90 131t33 168q0 90 -32.5 166t-88.5 131q-57 55 -132 87t-159 32t-158.5 -32t-129.5 -87t-88 -132t-33 -165z" />
<glyph unicode="r" horiz-adv-x="716" d="M129 31v1063h143v-213q53 104 150.5 161.5t200.5 57.5v-127q-66 0 -128.5 -26.5t-111.5 -80.5q-49 -53 -80 -131t-31 -178v-526h-143z" />
<glyph unicode="s" horiz-adv-x="1003" d="M92 195q23 23 42.5 38t53.5 50q51 -74 139.5 -110t170.5 -36q39 0 87 11.5t91 35.5q41 23 68.5 56.5t27.5 81.5q0 72 -46 111.5t-116 64.5t-151.5 44t-151.5 50t-116 84t-46 145q0 66 33 117t86 86t119.5 53.5t134.5 18.5q102 0 199.5 -41t163.5 -121 q-23 -18 -46.5 -37.5t-46.5 -40.5q-47 53 -121.5 83t-150.5 30q-25 0 -61.5 -8.5t-69.5 -24.5q-35 -18 -59.5 -47t-24.5 -70q0 -47 26.5 -76.5t67.5 -48.5q41 -20 89 -32.5t91 -22.5q66 -12 128.5 -36.5t111.5 -63.5q49 -41 80 -96.5t31 -129.5q0 -68 -36 -123t-95 -94 t-136 -59.5t-159 -20.5q-53 0 -110.5 10.5t-113.5 30.5q-55 23 -103 56.5t-81 81.5z" />
<glyph unicode="t" horiz-adv-x="901" d="M80 948v127h164v477h143v-477h307v-127h-307v-592q0 -66 15.5 -108.5t41.5 -67.5q27 -25 60 -35t69 -10q49 0 93.5 27.5t66.5 54.5q20 -23 40 -43t42 -43q-18 -23 -46 -44t-62 -40q-35 -16 -73 -26.5t-75 -10.5q-92 0 -153.5 23.5t-96.5 72.5q-37 51 -51 131t-14 193v518 h-164z" />
<glyph unicode="u" horiz-adv-x="1185" d="M129 434v662h143v-662q0 -70 23.5 -125t66.5 -92q43 -39 101.5 -59.5t128.5 -20.5q63 0 120.5 22.5t102.5 61.5q43 39 68.5 93.5t25.5 119.5v662h144v-1067h-144v147q-27 -45 -67.5 -76.5t-85.5 -52.5q-45 -20 -90 -29.5t-78 -9.5q-96 0 -180 29t-146 84q-61 55 -97 134 t-36 179z" />
<glyph unicode="v" horiz-adv-x="1138" d="M88 1094h154q82 -190 163.5 -378t163.5 -378q80 190 162 378.5t164 377.5h154q-123 -274 -241 -543.5t-239 -544.5q-123 274 -240.5 543.5t-240.5 544.5z" />
<glyph unicode="w" horiz-adv-x="1257" d="M92 1094h144q25 -180 50 -357.5t50 -357.5q72 139 148.5 282.5t146.5 278.5q74 -141 146.5 -279.5t146.5 -279.5l98 713h143q-41 -274 -84 -543.5t-86 -544.5q-92 170 -183 338t-183 340q-92 -172 -182.5 -340t-182.5 -338q-43 274 -85 543.5t-87 544.5z" />
<glyph unicode="x" horiz-adv-x="1112" d="M84 35l389 577l-334 490h162l254 -361l254 361h162l-332 -490l385 -577h-158l-311 457l-311 -457h-160z" />
<glyph unicode="y" horiz-adv-x="1183" d="M100 1096h154l354 -871l336 871h150l-578 -1495h-149l172 444z" />
<glyph unicode="z" horiz-adv-x="1120" d="M104 25l629 942h-596v129h842l-627 -942h666v-129h-914z" />
<glyph unicode="{" horiz-adv-x="753" d="M61 653v131q51 2 94.5 22.5t75.5 55.5q31 33 48.5 77t17.5 93v283q0 78 28.5 136t80.5 99q49 39 116.5 59.5t145.5 20.5v-127q-102 0 -165 -48t-63 -146v-277q0 -98 -52 -182t-128 -131q76 -47 128 -133t52 -178v-279q0 -92 65.5 -140t162.5 -48v-129q-78 0 -145.5 19 t-116.5 58q-51 39 -80 97.5t-29 136.5v285q0 49 -17.5 92t-48.5 78q-33 33 -75.5 52t-94.5 23z" />
<glyph unicode="|" horiz-adv-x="350" d="M102 -188v1818h144v-1818h-144z" />
<glyph unicode="}" horiz-adv-x="755" d="M68 -59q98 0 161.5 48t63.5 140v279q0 45 14.5 91t38.5 87q25 41 57.5 74.5t69.5 58.5q-76 47 -128 131t-52 182v277q0 96 -62.5 145t-162.5 49v127q371 0 370 -377v-188q0 -115 58.5 -193.5t177.5 -87.5v-131q-51 -4 -94 -23.5t-74 -51.5q-33 -35 -50.5 -78t-17.5 -92 v-285q0 -78 -28.5 -136.5t-77.5 -97.5q-51 -39 -119 -58t-145 -19v129z" />
<glyph unicode="~" horiz-adv-x="1193" d="M84 588q53 80 135.5 130t186.5 50q78 0 135 -27.5t110 -68.5q35 -29 74 -46.5t92 -17.5q133 0 219 140l88 -86q-53 -82 -135 -131.5t-186 -49.5q-78 0 -129 22.5t-107 69.5q-41 33 -79.5 49.5t-88.5 16.5q-68 0 -127 -36t-100 -101z" />
<glyph horiz-adv-x="2048" />
<glyph unicode="&#xa1;" horiz-adv-x="614" d="M197 1470q0 45 31.5 77t78.5 32t78 -32t31 -77q0 -47 -31 -77.5t-78 -30.5t-78.5 30.5t-31.5 77.5zM211 8v496l35 653h121l30 -651v-498h-186z" />
<glyph unicode="&#xa4;" d="M274 43q53 57 108.5 112.5t109.5 114.5q-82 92 -128.5 210t-46.5 253q0 131 45.5 246t122.5 207q-53 55 -105 111.5t-106 111.5q16 16 33 30.5t33 30.5q53 -55 105.5 -110t105.5 -111q90 78 200.5 122t237.5 44t238.5 -44t199.5 -122q53 53 106.5 109.5t106.5 111.5 q16 -16 33 -30.5t33 -30.5q-53 -57 -107.5 -112.5t-107.5 -112.5q80 -92 125 -207t45 -244q0 -135 -46 -251.5t-130 -209.5l221 -229q-16 -16 -32.5 -30.5t-33.5 -30.5q-55 57 -109 113.5t-110 113.5q-88 -76 -197.5 -118t-234.5 -42q-123 0 -232.5 43t-199.5 117 q-53 -59 -108.5 -114.5t-108.5 -112.5q-16 16 -32.5 30.5t-33.5 30.5zM410 733q0 -121 45 -228.5t123 -187.5t184 -127t227 -47q119 0 225.5 46.5t184.5 125.5q78 80 124 187.5t46 230.5q0 121 -46 227.5t-124 186.5t-184.5 127t-225.5 47q-121 0 -227.5 -47t-183.5 -127 q-78 -82 -123 -188.5t-45 -225.5z" />
<glyph unicode="&#xa7;" horiz-adv-x="1159" d="M293 786q0 78 40 135.5t120 57.5q18 0 34 -6q-63 82 -101 163t-42 164q0 121 57.5 197t178.5 78q55 0 100 -16.5t78 -40.5q31 -27 48 -56.5t17 -56.5q0 -37 -18.5 -63.5t-48.5 -26.5q-25 0 -49.5 29.5t-24.5 70.5q-8 25 -15.5 45.5t-19.5 34.5q-14 14 -36.5 22.5 t-59.5 8.5q-104 0 -119 -168q0 -98 53.5 -187.5t163.5 -179.5q203 -164 203 -360q0 -55 -16.5 -91t-38.5 -55q-25 -20 -49.5 -28t-40.5 -8q-4 0 -5.5 1t-3.5 1q10 -14 30 -48t38 -77t31.5 -91.5t13.5 -91.5q0 -66 -19.5 -116t-52.5 -86q-33 -35 -77 -53.5t-91 -18.5 q-117 0 -190.5 58.5t-73.5 156.5q0 18 8.5 30.5t20.5 20.5q12 6 24.5 9t18.5 3q16 0 29.5 -14t23.5 -35q8 -20 13.5 -43.5t7.5 -42.5q4 -49 30.5 -63.5t65.5 -18.5q20 0 46 6.5t50 24.5q23 18 38 53t15 92q0 86 -44 163t-95 124q-129 135 -197.5 233.5t-68.5 159.5zM389 848 q0 -104 57 -180v2q72 -86 129.5 -128t94.5 -42q49 0 73.5 24.5t24.5 55.5q0 68 -35 128t-80 107t-88 76t-59 33q-10 2 -20.5 3t-20.5 1q-76 0 -76 -80z" />
<glyph unicode="&#xa8;" d="M420 1438v219h213v-219h-213zM1311 1438v219h213v-219h-213z" />
<glyph unicode="&#xaa;" d="M369 846q0 109 43 208t118 175q76 74 175.5 118t214.5 44q53 0 111.5 -14.5t113.5 -41.5t103 -64.5t79 -84.5v190h146v-1052h-146v182q-37 -55 -86 -94t-104 -62q-55 -25 -111.5 -36t-105.5 -11q-106 0 -206 42t-175 116q-78 72 -124 171t-46 214zM391 -37v115h1194v-115 h-1194zM510 846q0 -90 32.5 -166t88.5 -131q55 -55 130 -86t159 -31q86 0 160.5 31t129.5 86t88 131t33 166q0 92 -33.5 169t-89.5 132q-57 55 -131.5 86t-156.5 31q-84 0 -159 -32t-130 -87q-55 -57 -88 -134t-33 -165z" />
<glyph unicode="&#xad;" horiz-adv-x="1638" d="M291 645v141h1055v-141h-1055z" />
<glyph unicode="&#xae;" d="M39 96v1311q0 41 11 101.5t54 113.5q27 33 64 51.5t76 28.5q37 8 70.5 10t54.5 2h1208q102 0 165.5 -28.5t100.5 -73.5q35 -45 48.5 -99.5t13.5 -105.5v-1311q0 -98 -27 -164.5t-68 -107.5q-43 -39 -96 -55.5t-106 -16.5h-1270q-45 0 -103.5 16.5t-105.5 57.5 q-31 27 -49.5 64.5t-26.5 76.5q-10 41 -12 76t-2 53zM102 72q0 -51 13.5 -96.5t42.5 -79.5q29 -35 72.5 -55.5t103.5 -20.5h1278q61 0 105 21.5t73 56.5q27 35 39 81t12 93v1329q0 70 -20.5 117t-53.5 75q-33 29 -75.5 41.5t-87.5 12.5h-1262q-47 0 -91 -12.5t-77 -41.5 t-52.5 -76t-19.5 -116v-1329zM352 57v156q0 72 53.5 146.5t139.5 146.5t194.5 135.5t221.5 112.5q131 55 195.5 141t64.5 162q0 45 -15 76v-3q-31 78 -98.5 105t-173.5 27q-61 0 -105.5 -10.5t-72.5 -22.5q-29 -14 -42.5 -26.5t-13.5 -14.5t9.5 -13.5t19.5 -29.5t19.5 -40 t9.5 -46q0 -86 -53.5 -139.5t-126.5 -53.5q-49 0 -85 18.5t-59 47.5q-25 29 -36 65.5t-11 73.5q0 47 21 86q39 74 95 125t124 86q66 33 139.5 48.5t148.5 15.5q111 0 189 -7.5t127 -17.5q68 -14 132 -48t116 -81q49 -47 79.5 -106.5t30.5 -124.5q0 -68 -33 -148v2 q-31 -70 -84 -122t-116 -89q-66 -39 -137.5 -66.5t-137.5 -48.5q-102 -33 -186 -66.5t-143 -62.5q-59 -31 -91 -51t-32 -26q180 -2 323 -2h361q23 0 51.5 13t48.5 34q25 25 31 45t12 35q4 12 15.5 19t41.5 7h91q-10 -117 -19.5 -231.5t-19.5 -231.5h-1213z" />
<glyph unicode="&#xb0;" horiz-adv-x="1067" d="M59 1446q0 49 19.5 93t52.5 79q31 33 75 53.5t93 20.5t93 -20.5t77 -53.5q33 -35 52.5 -79t19.5 -93t-18.5 -94t-51.5 -78q-33 -35 -77 -54.5t-95 -19.5q-49 0 -93 18.5t-75 53.5q-33 33 -52.5 77t-19.5 97zM143 1444q0 -68 45 -114t111 -46t112 46t46 114t-46 114 t-112 46t-111 -46t-45 -114z" />
<glyph unicode="&#xb1;" horiz-adv-x="1228" d="M109 29v129h1021v-129h-1021zM109 836v129h440v440h143v-440h438v-129h-438v-441h-143v441h-440z" />
<glyph unicode="&#xb2;" horiz-adv-x="614" d="M82 985q4 86 47 150.5t113 113.5q14 8 41.5 23.5t56.5 38.5t50.5 52.5t21.5 68.5q0 25 -11.5 45t-29.5 36q-18 14 -40 22.5t-42 8.5q-43 0 -69.5 -34.5t-26.5 -82.5h-103q0 45 16.5 86t47.5 72q29 29 67.5 46.5t85.5 17.5q94 0 154.5 -60.5t60.5 -146.5q0 -55 -21.5 -95 t-51.5 -71q-33 -31 -71 -53.5t-71 -44.5q-33 -23 -57.5 -45.5t-28.5 -51.5h309v-96h-448z" />
<glyph unicode="&#xb3;" horiz-adv-x="614" d="M80 1210h104q0 -59 37 -87.5t86 -28.5q43 0 82 32.5t39 75.5q0 29 -16.5 48.5t-40.5 31.5q-27 12 -58.5 16.5t-60.5 1.5v97q27 0 54.5 3t49.5 13q23 10 37.5 26.5t14.5 45.5t-27 56.5t-74 27.5t-73.5 -28t-26.5 -62h-107q0 39 17.5 73.5t46.5 61.5q29 25 65.5 40t77.5 15 q43 0 81 -14.5t67 -38.5q27 -27 42 -59.5t15 -69.5t-18.5 -74t-51.5 -59q41 -23 67 -64t26 -92q0 -86 -64.5 -144.5t-163.5 -58.5q-96 0 -161.5 55.5t-65.5 159.5z" />
<glyph unicode="&#xb4;" horiz-adv-x="614" d="M141 1208q14 47 36 110.5t54 149.5q63 162 97 215q41 59 94 29q51 -31 20 -96q-16 -37 -49 -87t-80 -114q-47 -61 -89 -113.5t-83 -93.5z" />
<glyph unicode="&#xb6;" horiz-adv-x="1024" d="M115 1227q0 90 30.5 165.5t83.5 131.5q53 53 124 82.5t153 29.5h401v-1826h-84v1746h-207v-1746h-84v1003q-102 0 -181 30.5t-130 86.5q-53 55 -79.5 131t-26.5 166z" />
<glyph unicode="&#xb7;" horiz-adv-x="614" d="M172 733q0 55 40 93t95 38q57 0 95 -38t38 -93q0 -53 -37.5 -92t-95.5 -39q-55 0 -95 39t-40 92z" />
<glyph unicode="&#xb8;" horiz-adv-x="614" d="M152 -88l190 192l-190 185v117l311 -297l-311 -314v117z" />
<glyph unicode="&#xb9;" horiz-adv-x="614" d="M213 1571v92q47 0 93 1t93 1v-661h-98v567h-88z" />
<glyph unicode="&#xba;" d="M391 -49v117h1194v-117h-1194zM418 846q0 111 43 209t119 174q74 74 174 117t215 43q113 0 212 -42t175 -116t120 -173.5t44 -211.5q0 -111 -43 -209t-119 -172q-76 -76 -176 -119t-213 -43t-213.5 42t-173.5 116q-76 74 -120 173t-44 212zM557 846q0 -90 33 -166 t90 -131q55 -55 130 -87t159 -32t158.5 32t132.5 87q55 55 87.5 131t32.5 166q0 88 -32.5 163.5t-87.5 133.5q-57 55 -132 87t-159 32t-159 -32t-130 -87q-57 -57 -90 -133t-33 -164z" />
<glyph unicode="&#xbc;" d="M272 688v88h1399v-88h-1399zM598 25q106 150 213 298t213 298h109v-609h139v-102h-139v-160h-115v160h-420v115zM717 10h301v422q-78 -109 -150.5 -212t-150.5 -210zM766 1464v95q86 0 149.5 35.5t67.5 113.5h88v-864h-115v620h-190z" />
<glyph unicode="&#xbd;" d="M274 688v88h1399v-88h-1399zM657 -270q0 94 44 175t149 161q39 29 90 56.5t98 59.5q45 33 78 76t33 104q0 74 -41 118t-127 44q-45 0 -79 -15t-56 -40q-25 -27 -37 -59.5t-12 -69.5h-119q0 51 19.5 102.5t58.5 92.5q37 41 93 66.5t132 25.5q68 0 121 -20.5t92 -57.5 q37 -37 57.5 -85t20.5 -104q0 -84 -36 -140t-91 -99t-119.5 -78t-120.5 -76h2q-92 -76 -100 -137h467v-100h-617zM762 1464v95q86 0 149.5 35.5t67.5 113.5h88v-864h-115v620h-190z" />
<glyph unicode="&#xbe;" d="M272 688v88h1399v-88h-1399zM598 25q106 150 213 298t213 298h109v-609h139v-102h-139v-160h-115v160h-420v115zM672 1114q29 0 58.5 -1t60.5 -1q0 -68 46 -123t146 -55q86 0 136 47t50 121t-56 113.5t-134 39.5q-12 0 -23.5 -1t-25.5 -1v99q98 0 156.5 41t58.5 114 q0 59 -41 100.5t-123 41.5q-94 0 -131 -47.5t-37 -110.5q-31 0 -59.5 -1t-59.5 -1q0 125 82 191.5t207 66.5q61 0 112.5 -19.5t90.5 -52.5t60.5 -77t21.5 -93q0 -82 -37 -129t-84 -69q63 -29 106 -82.5t43 -124.5q0 -59 -23.5 -108.5t-64.5 -84.5q-43 -37 -99 -57.5 t-124 -20.5q-70 0 -127 21.5t-98 60.5q-43 37 -65.5 89.5t-22.5 113.5zM717 10h301v422q-78 -109 -150.5 -212t-150.5 -210z" />
<glyph unicode="&#xbf;" horiz-adv-x="1093" d="M96 365q0 84 32 144t79 107t101 88t102 87q47 45 78.5 99t31.5 128v112h144v-112q0 -104 -56.5 -203.5t-158.5 -163.5h2q-35 -23 -72 -52.5t-68 -66.5t-50 -79.5t-19 -87.5q0 -147 82 -227.5t223 -80.5q59 0 112.5 21.5t94.5 60.5q39 37 64.5 90.5t29.5 114.5h145 q-4 -86 -41 -163t-96 -134q-61 -55 -141 -88t-168 -33q-100 0 -183 30t-143 85q-59 57 -92 139t-33 185zM481 1430q0 45 31 76.5t78 31.5t78.5 -31.5t31.5 -76.5q0 -47 -31.5 -79t-78.5 -32t-78 32t-31 79z" />
<glyph unicode="&#xc6;" d="M70 31q152 397 301 790t303 793h1132v-135h-925q55 -139 109 -276.5t110 -276.5h667v-135h-620q61 -158 120.5 -313.5t118.5 -313.5h437v-133h-535q-41 104 -82 208.5t-82 211.5h-741q-41 -106 -83 -211t-83 -209h-147zM430 586h643q-82 213 -160.5 423t-160.5 421 q-80 -211 -160 -421t-162 -423z" />
<glyph unicode="&#xd0;" d="M180 602v113h297v915h543q154 0 286 -64.5t230 -172.5q96 -109 150.5 -255.5t54.5 -308.5q0 -158 -51.5 -302t-145.5 -255q-96 -111 -229 -177t-295 -66h-543v573h-297zM623 158h397q127 0 232.5 55t181.5 149q76 92 117.5 213t41.5 254q0 131 -41 253t-114 216 q-76 94 -182.5 149.5t-235.5 55.5h-397v-788h563v-113h-563v-444z" />
<glyph unicode="&#xd7;" d="M309 80q145 193 288.5 385t289.5 387l-547 737q35 10 68.5 19.5t68.5 19.5q125 -166 248 -330.5t248 -332.5q123 166 245.5 329.5t245.5 329.5q35 -10 68 -17.5t67 -17.5l-540 -737q147 -195 291.5 -388t291.5 -388q-35 -10 -68.5 -20.5t-68.5 -20.5q-135 176 -267 350 t-267 352q-131 -176 -260 -349t-260 -347q-35 10 -71 19.5t-71 19.5z" />
<glyph unicode="&#xd8;" d="M236 825q0 158 51 305.5t145 262.5q94 113 227.5 180t294.5 67q121 0 227.5 -40.5t192.5 -112.5q35 41 67 83t66 83q27 -23 53.5 -46.5t53.5 -45.5q-35 -45 -71 -88t-70 -89q94 -111 147 -255t53 -304q0 -156 -52 -303t-146 -260q-96 -115 -228.5 -183.5t-292.5 -68.5 q-131 0 -242.5 46t-203.5 124q-29 -37 -56.5 -70.5t-56.5 -68.5q-27 23 -53.5 46.5t-52.5 45.5q33 39 63.5 78t63.5 78q-86 109 -133 246t-47 290zM371 834q0 -123 35.5 -230.5t99.5 -200.5q199 248 393.5 491t392.5 488q-74 61 -160 95t-178 34q-121 0 -227 -54t-184 -146 q-80 -92 -126 -215t-46 -262zM592 285q76 -70 167 -109t195 -39q119 0 224.5 54.5t185.5 148.5q80 92 126 215t46 260q0 129 -41 247t-111 214q-199 -250 -396 -495.5t-396 -495.5z" />
<glyph unicode="&#xde;" d="M485 -45v1663h146v-541q31 47 79 85t103 65q55 25 113.5 39t111.5 14q113 0 213.5 -42t175.5 -116q76 -74 119 -173t43 -212q0 -115 -46 -214t-122 -171q-78 -74 -177.5 -115.5t-205.5 -41.5q-49 0 -105 11t-112 36q-55 23 -104 61.5t-86 93.5v-442h-146zM627 737 q0 -90 32.5 -165.5t88.5 -131.5q55 -55 129.5 -86.5t160.5 -31.5q84 0 159 31.5t130 86.5t88 131t33 166q0 88 -33 164t-88 133q-55 55 -130 87t-159 32q-82 0 -156.5 -30.5t-129.5 -84.5q-57 -55 -91 -132t-34 -169z" />
<glyph unicode="&#xdf;" d="M520 -53v1186q0 113 33 197.5t90 142.5q57 55 132 82.5t159 27.5q119 0 204 -32.5t140 -88.5q53 -55 78.5 -127.5t25.5 -154.5q0 -143 -63.5 -219t-161.5 -109q51 -12 102.5 -43t92.5 -82q39 -51 64.5 -121.5t27.5 -163.5q-4 -221 -127 -320t-334 -99h-162v120h123 q82 0 146.5 14.5t109.5 49.5q45 33 69.5 90t24.5 143q0 180 -95 255t-257 75h-63v131h49q59 0 115.5 18.5t101.5 55.5q43 37 69.5 92t26.5 127q0 129 -75.5 197.5t-231.5 68.5q-68 0 -119 -25.5t-86 -68.5q-37 -43 -54.5 -101.5t-17.5 -125.5v-1192h-137z" />
<glyph unicode="&#xe6;" d="M223 309q0 135 69.5 222t203.5 122q61 18 131.5 26.5t130.5 25.5q59 14 98 44.5t39 92.5q0 51 -25.5 95t-81.5 73q-53 53 -135 53q-113 0 -176 -65.5t-63 -178.5h-140q0 84 30 153.5t81 119.5q49 49 118.5 75.5t149.5 26.5q117 0 209 -59.5t133 -163.5 q59 100 142.5 160.5t191.5 60.5q94 0 173 -37t136 -113q55 -78 86 -195.5t31 -277.5h-704q0 -96 23.5 -173t62.5 -130q37 -53 87 -81.5t103 -28.5q109 0 166 52t74 140h151q-12 -59 -39.5 -117.5t-72.5 -103.5q-47 -47 -113 -77t-152 -30q-186 0 -305 170q2 -35 2 -68.5 v-66.5h-137q-2 33 -4 71t-4 75q-18 -35 -54 -66t-81 -55q-45 -25 -94.5 -41t-98.5 -19q-68 0 -129 20.5t-108 57.5t-76 90.5t-29 120.5zM367 328q0 -82 54 -124t134 -42q47 0 105.5 21.5t111.5 60.5q51 37 87 88t38 110q0 23 1 47.5t1 49.5t-1 48t-1 48q-18 -23 -77.5 -46.5 t-147.5 -33.5q-154 -16 -229.5 -68.5t-75.5 -158.5zM1053 702h542q0 76 -17 140.5t-50 111.5q-35 47 -85 74t-114 27q-53 0 -101 -25.5t-85 -71.5q-37 -47 -60.5 -111.5t-29.5 -144.5z" />
<glyph unicode="&#xf0;" d="M457 608h872q0 86 -38 156t-101 119q-53 -49 -103.5 -98.5t-103.5 -98.5l-74 80l181 172q-76 35 -156 35q-92 0 -180 -40t-152 -116q-23 23 -45 43.5t-45 42.5q78 90 185.5 144.5t236.5 54.5q135 0 256 -64q57 57 115.5 112.5t117.5 113.5q18 -20 37 -42t37 -44 q-53 -51 -106.5 -101.5t-106.5 -101.5q92 -72 146.5 -179.5t54.5 -242.5q0 -119 -40 -218t-108 -169q-70 -72 -164 -111t-200 -39q-121 0 -216 42t-161 120q-68 76 -103.5 185.5t-35.5 244.5zM610 483q0 -74 32 -136t83 -107t115.5 -71t132.5 -26t132 27t116 74 q49 45 78.5 106.5t29.5 132.5h-719z" />
<glyph unicode="&#xf7;" horiz-adv-x="1742" d="M264 643v141h1215v-141h-1215zM750 270q0 51 33.5 87t84.5 36q55 0 88 -35t33 -88q0 -47 -34.5 -83.5t-84.5 -36.5q-49 0 -84.5 34.5t-35.5 85.5zM750 1167q0 51 34.5 87t83.5 36q55 0 88 -35.5t33 -87.5q0 -51 -34.5 -85.5t-84.5 -34.5q-49 0 -84.5 33.5t-35.5 86.5z " />
<glyph unicode="&#xf8;" d="M436 551q0 111 43 209t119 174q74 74 174 117t215 43q76 0 145.5 -20.5t133.5 -57.5l123 153l110 -86q-31 -39 -61.5 -75.5t-61.5 -75.5q76 -74 119 -172t43 -209t-43 -209t-119 -172t-176 -117t-213 -43q-78 0 -150.5 21.5t-134.5 60.5q-29 -37 -57.5 -72.5t-56.5 -72.5 q-29 23 -54.5 43t-52.5 41q29 37 57.5 71.5t57.5 71.5q-76 72 -118 168t-42 209zM575 551q0 -80 28 -148.5t79 -121.5q125 160 249 316.5t251 315.5q-45 25 -97.5 38.5t-105.5 13.5q-84 0 -157.5 -32t-127.5 -87q-55 -57 -87 -133t-32 -162zM784 190q45 -27 96.5 -41 t106.5 -14q84 0 158 32t129 87t88 130t33 161q0 164 -105 278q-127 -160 -253 -316.5t-253 -316.5z" />
<glyph unicode="&#xfe;" d="M504 29v1595h145v-713q31 47 72 80t86 53q43 20 86 29.5t76 9.5q104 0 188 -31.5t146 -88.5q59 -57 91.5 -138.5t32.5 -179.5v-616h-143v616q0 147 -87 229t-230 82q-63 0 -121 -26.5t-101 -69.5q-45 -45 -70.5 -101.5t-25.5 -113.5v-616h-145z" />
<glyph unicode="&#x152;" d="M227 829q0 182 38 333t110 259q72 109 177 168.5t241 59.5h942v-119h-629q117 -90 180.5 -255t71.5 -382h334v-137h-334q-10 -217 -72.5 -378t-179.5 -249h649v-121h-962q-135 0 -241 60.5t-177 169.5q-72 109 -110 259t-38 332zM365 829q0 -166 33.5 -293.5t93.5 -216.5 q57 -90 135 -136t166 -46q90 2 167.5 48t137.5 137q57 88 90 216t33 291q0 164 -34 293t-91 219q-59 88 -137 134.5t-166 46.5t-166 -46t-135 -135q-59 -90 -93 -219t-34 -293z" />
<glyph unicode="&#x153;" d="M244 606q0 123 28.5 229.5t79.5 186.5q51 78 124 124t163 46q117 0 202 -70.5t132 -191.5l14 14t17 12q49 109 126.5 172.5t184.5 63.5q94 0 167.5 -47t127.5 -129q51 -84 77.5 -197.5t26.5 -249.5h-659q0 -90 21.5 -165.5t58.5 -131.5q35 -55 81 -85.5t97 -30.5 q96 0 150.5 57t70.5 135h147q-14 -55 -41.5 -113.5t-70.5 -105.5q-43 -49 -103.5 -79t-140.5 -30q-117 0 -205 73t-141 202q-51 -125 -136 -200t-204 -75q-92 0 -165 47.5t-124 127.5t-78.5 186t-27.5 225zM379 606q0 -92 17.5 -175t52.5 -144q33 -61 81 -97t109 -36 q59 0 107.5 36.5t82.5 100.5q33 61 51.5 143t18.5 172q0 92 -19.5 175t-52.5 145q-35 61 -83 97t-105 36t-105.5 -35t-80.5 -96q-35 -61 -54.5 -144.5t-19.5 -177.5zM1057 702h506q-2 76 -18.5 140.5t-47.5 111.5t-76 74t-106 27q-49 0 -93 -24.5t-79 -69.5 q-35 -47 -57.5 -112t-28.5 -147z" />
<glyph unicode="&#x2000;" horiz-adv-x="873" />
<glyph unicode="&#x2001;" horiz-adv-x="1747" />
<glyph unicode="&#x2002;" horiz-adv-x="873" />
<glyph unicode="&#x2003;" horiz-adv-x="1747" />
<glyph unicode="&#x2004;" horiz-adv-x="582" />
<glyph unicode="&#x2005;" horiz-adv-x="436" />
<glyph unicode="&#x2006;" horiz-adv-x="291" />
<glyph unicode="&#x2007;" horiz-adv-x="291" />
<glyph unicode="&#x2008;" horiz-adv-x="218" />
<glyph unicode="&#x2009;" horiz-adv-x="349" />
<glyph unicode="&#x200a;" horiz-adv-x="97" />
<glyph unicode="&#x2010;" horiz-adv-x="968" d="M68 643v129h817v-129h-817z" />
<glyph unicode="&#x2011;" horiz-adv-x="968" d="M68 643v129h817v-129h-817z" />
<glyph unicode="&#x2012;" horiz-adv-x="968" d="M68 643v129h817v-129h-817z" />
<glyph unicode="&#x2013;" horiz-adv-x="1175" d="M68 643v129h1024v-129h-1024z" />
<glyph unicode="&#x2014;" horiz-adv-x="2199" d="M68 643v129h2048v-129h-2048z" />
<glyph unicode="&#x2018;" horiz-adv-x="479" d="M123 1485q2 88 44 140t114 73q14 4 27.5 1t17.5 -13q2 -10 -5.5 -14.5t-17.5 -8.5q-35 -23 -47 -46.5t-6 -37.5q47 -4 76.5 -35t29.5 -71q0 -47 -33.5 -79t-80.5 -32q-59 0 -89 38t-30 85z" />
<glyph unicode="&#x2019;" horiz-adv-x="479" d="M123 1614q0 45 33.5 76.5t81.5 31.5q59 0 88.5 -37t29.5 -86q-2 -86 -44 -139t-113 -71q-14 -4 -27.5 -2t-17.5 12q-2 10 5 14t17 10q35 20 47.5 44t5.5 38q-47 4 -76.5 36t-29.5 73z" />
<glyph unicode="&#x201c;" horiz-adv-x="684" d="M76 1485q0 88 43 140t114 73q12 4 25.5 1t17.5 -13q2 -10 -5 -14.5t-17 -8.5q-35 -23 -46 -46.5t-5 -37.5q45 -4 74.5 -35t29.5 -71q0 -47 -33.5 -79t-80.5 -32q-59 0 -88 38t-29 85zM377 1485q0 88 43 140t115 73q12 4 25 1t18 -13q2 -10 -5.5 -14.5t-17.5 -8.5 q-35 -23 -46 -46.5t-5 -37.5q45 -4 74.5 -35t29.5 -71q0 -47 -33.5 -79t-80.5 -32q-59 0 -88 38t-29 85z" />
<glyph unicode="&#x201d;" horiz-adv-x="684" d="M82 1614q0 45 34 76.5t81 31.5q59 0 88.5 -37t29.5 -86q-2 -86 -44 -139t-113 -71q-14 -4 -27.5 -2t-17.5 12q-2 10 5 14t17 10q35 20 47.5 44t3.5 38q-45 4 -74.5 36t-29.5 73zM369 1614q0 45 34.5 76.5t81.5 31.5q57 0 87 -37t30 -86q-2 -86 -44 -139t-114 -71 q-14 -4 -26 -2t-17 12q-4 10 3.5 14t17.5 10q37 20 48 44t5 38q-45 4 -75.5 36t-30.5 73z" />
<glyph unicode="&#x2026;" d="M285 623v221h211v-221h-211zM868 623v221h209v-221h-209zM1448 623v221h211v-221h-211z" />
<glyph unicode="&#x202f;" horiz-adv-x="349" />
<glyph unicode="&#x205f;" horiz-adv-x="436" />
<glyph unicode="&#x20ac;" d="M39 96v1311q0 41 11 101.5t54 113.5q27 33 64 51.5t76 28.5q37 8 70.5 10t54.5 2h1208q102 0 165.5 -28.5t100.5 -73.5q35 -45 48.5 -99.5t13.5 -105.5v-1311q0 -98 -27 -164.5t-68 -107.5q-43 -39 -96 -55.5t-106 -16.5h-1270q-45 0 -103.5 16.5t-105.5 57.5 q-31 27 -49.5 64.5t-26.5 76.5q-10 41 -12 76t-2 53zM102 72q0 -51 13.5 -96.5t42.5 -79.5q29 -35 72.5 -55.5t103.5 -20.5h1278q61 0 105 21.5t73 56.5q27 35 39 81t12 93v1329q0 70 -20.5 117t-53.5 75q-33 29 -75.5 41.5t-87.5 12.5h-1262q-47 0 -91 -12.5t-77 -41.5 t-52.5 -76t-19.5 -116v-1329zM569 1130v132q106 35 212 72.5t212 74.5h76q33 0 53.5 -9t20.5 -38v-1051q0 -39 15.5 -59.5t37.5 -30.5q23 -10 50.5 -15t49.5 -11q23 -6 38.5 -18.5t15.5 -39.5v-84h-748v84q0 39 33 50.5t72 19.5t71.5 27.5t32.5 76.5v819h-242z" />
<glyph unicode="&#x2122;" d="M180 1530v100h441v-100h-166v-631h-111v631h-164zM664 899v731h112q33 -133 65.5 -263t65.5 -263q33 133 66 263t65 263h113v-731h-92v428q-27 -109 -52.5 -214t-50.5 -214h-100q-25 106 -50.5 213t-49.5 213v-426h-92z" />
<glyph unicode="&#x25fc;" horiz-adv-x="1105" d="M0 0v1106h1106v-1106h-1106z" />
</font>
</defs>
</svg>
